<svg xmlns="http://www.w3.org/2000/svg" width="62" height="48" viewBox="0 0 62 48" fill="none">
    <g clip-path="url(#clip0_1516_1653)">
        <path
            d="M11.6526 0.544113C7.51348 0.544113 4.97482 3.26411 4.97482 12.9361C4.97482 22.6081 7.51348 24.9761 11.6526 24.9761C15.7917 24.9761 18.2594 22.6481 18.2594 12.9361C18.2594 3.22411 15.7602 0.544113 11.6526 0.544113ZM11.6526 25.5041C4.00509 25.5041 0 19.9601 0 12.9361C0 5.91211 4.00509 0.0161133 11.6526 0.0161133C19.3001 0.0161133 23.3052 5.94411 23.3052 12.9361C23.3052 19.9281 19.3001 25.5041 11.6526 25.5041Z"
            fill="#151515" />
        <path
            d="M57.9824 0V0.544C55.8458 0.544 54.1823 1.408 51.0917 9.16L45.0841 25.384H44.548L38.3985 9.552L32.856 25.384H32.3199L23.6553 3.4C22.591 0.656 21.3768 0.552 20.3125 0.552V0H30.7588V0.544C27.6289 0.544 28.843 4.04 28.914 4.184L34.5274 19.184L38.1146 8.76L36.1594 3.384C35.1266 0.64 33.8809 0.536 32.856 0.536V0H43.3023V0.544C40.1014 0.544 41.3865 4.04 41.418 4.184L46.858 19.328L50.5556 9.016C51.0523 7.288 53.7171 0.544 48.2141 0.544V0H57.9824Z"
            fill="#151515" />
        <path
            d="M60.0424 0.904V1.592H60.547C60.7047 1.592 60.8781 1.448 60.8781 1.256C60.8781 1.048 60.7047 0.904 60.547 0.904H60.0424ZM60.8466 2.544L60.3735 1.816H60.0424V2.544H59.8059V0.688H60.547C60.8545 0.688 61.1225 0.912 61.1225 1.248C61.1225 1.656 60.7599 1.792 60.6574 1.792L61.1462 2.528H60.8466V2.544ZM59.0333 1.616C59.0333 2.384 59.6482 3.016 60.413 3.016C61.1777 3.016 61.7927 2.384 61.7927 1.616C61.7927 0.848 61.1777 0.216 60.413 0.216C59.6482 0.216 59.0333 0.832 59.0333 1.616ZM58.8204 1.616C58.8204 0.712 59.53 0 60.4051 0C61.2802 0 61.9898 0.712 61.9898 1.608C61.9898 2.504 61.2881 3.216 60.4051 3.216C59.5221 3.216 58.8125 2.496 58.8125 1.608L58.8204 1.616Z"
            fill="#151515" />
        <path
            d="M3.47782 34.6805C3.0442 34.6805 2.8944 35.4165 2.8944 36.4485C2.8944 37.4805 3.0442 38.2085 3.47782 38.2085C3.91144 38.2085 4.06124 37.4645 4.06124 36.4485C4.06124 35.4325 3.91144 34.6805 3.47782 34.6805ZM3.47782 33.5605C4.76291 33.5605 5.33845 34.7845 5.33845 36.4485C5.33845 38.1125 4.76291 39.3285 3.47782 39.3285C2.19272 39.3285 1.61719 38.1045 1.61719 36.4485C1.61719 34.7925 2.19272 33.5605 3.47782 33.5605Z"
            fill="#151515" />
        <path
            d="M8.06061 34.7524H7.78467V36.1684H8.06061C8.39962 36.1684 8.60461 35.8964 8.60461 35.4644C8.60461 35.0324 8.39962 34.7524 8.06061 34.7524ZM8.58884 39.2244L8.05272 37.2644H7.79255V39.2244H6.54688V33.6484H8.26559C9.19591 33.6484 9.87394 34.3924 9.87394 35.4164C9.87394 36.3524 9.48762 36.7764 9.18802 36.9684L9.92124 39.2244H8.58884Z"
            fill="#151515" />
        <path
            d="M12.8295 33.5522C13.6495 33.5522 14.1383 34.2082 14.3275 34.9922L13.3341 35.3602C13.2631 34.9842 13.137 34.6722 12.8216 34.6722C12.4747 34.6722 12.2303 35.1202 12.2303 36.4402C12.2303 37.7602 12.4747 38.2002 12.8216 38.2002C13.0266 38.2002 13.1685 38.1362 13.271 37.9922V37.2082H12.7113V36.1042H14.3669V38.5522C13.9727 39.0242 13.5076 39.3202 12.8216 39.3202C11.5365 39.3202 10.9531 38.1442 10.9531 36.4402C10.9531 34.7362 11.5444 33.5522 12.8216 33.5522H12.8295Z"
            fill="#151515" />
        <path
            d="M17.1579 34.7604L16.7558 37.2164H17.5599L17.1579 34.7604ZM17.8438 39.2244L17.7019 38.3204H16.6139L16.472 39.2244H15.2578L16.4325 33.6484H17.8674L19.05 39.2244H17.8359H17.8438Z"
            fill="#151515" />
        <path
            d="M22.2783 39.2244L21.2455 36.1684V39.2244H20.0234V33.6484H21.2691L22.2152 36.5524V33.6484H23.4372V39.2244H22.2783Z"
            fill="#151515" />
        <path d="M26.0738 33.6484H24.8281V39.2244H26.0738V33.6484Z" fill="#151515" />
        <path
            d="M27.2812 36.4402C27.2812 34.7522 27.8568 33.5522 29.1498 33.5522C30.1353 33.5522 30.4664 34.3522 30.6477 34.9922L29.6543 35.3602C29.5676 34.9362 29.4415 34.6722 29.1419 34.6722C28.6925 34.6722 28.5506 35.3842 28.5506 36.4402C28.5506 37.4962 28.7004 38.2002 29.1419 38.2002C29.4651 38.2002 29.5992 37.8562 29.6622 37.4082L30.6556 37.7682C30.4979 38.4242 30.1668 39.3202 29.1498 39.3202C27.8568 39.3202 27.2812 38.1202 27.2812 36.4402Z"
            fill="#151515" />
        <path
            d="M36.3866 39.2244L35.9924 35.9764L35.5982 39.2244H34.3525L33.3828 33.6484H34.6443L35.0306 37.0244L35.5194 33.6484H36.4733L36.9622 37.0244L37.3485 33.6484H38.6178L37.6323 39.2244H36.3866Z"
            fill="#151515" />
        <path
            d="M41.2903 34.6805C40.8567 34.6805 40.7069 35.4165 40.7069 36.4485C40.7069 37.4805 40.8567 38.2085 41.2903 38.2085C41.7239 38.2085 41.8737 37.4645 41.8737 36.4485C41.8737 35.4325 41.7239 34.6805 41.2903 34.6805ZM41.2903 33.5605C42.5754 33.5605 43.151 34.7845 43.151 36.4485C43.151 38.1125 42.5754 39.3285 41.2903 39.3285C40.0052 39.3285 39.4297 38.1045 39.4297 36.4485C39.4297 34.7925 40.0052 33.5605 41.2903 33.5605Z"
            fill="#151515" />
        <path
            d="M45.8653 34.7524H45.5894V36.1684H45.8653C46.2043 36.1684 46.4093 35.8964 46.4093 35.4644C46.4093 35.0324 46.2043 34.7524 45.8653 34.7524ZM46.3935 39.2244L45.8574 37.2644H45.5972V39.2244H44.3516V33.6484H46.0703C47.0006 33.6484 47.6786 34.3924 47.6786 35.4164C47.6786 36.3524 47.2923 36.7764 46.9927 36.9684L47.7259 39.2244H46.3935Z"
            fill="#151515" />
        <path
            d="M51.2788 39.2244L50.5377 37.2404L50.2066 37.9444V39.2244H48.9609V33.6484H50.2066V36.0644L51.2315 33.6484H52.5876L51.2788 36.2564L52.6901 39.2244H51.2788Z"
            fill="#151515" />
        <path
            d="M53.8719 37.7605C54.1084 38.0565 54.479 38.2005 54.7865 38.2005C55.0939 38.2005 55.2753 37.9925 55.2753 37.7205C55.2753 37.3685 54.9836 37.1765 54.6445 36.9525C54.14 36.6245 53.5171 36.2325 53.5171 35.2005C53.5171 34.3605 54.0927 33.5605 55.1807 33.5605C55.6931 33.5605 56.1583 33.7365 56.4815 34.0405L56.0164 35.0165C55.7877 34.7845 55.5118 34.6805 55.2437 34.6805C54.952 34.6805 54.7865 34.8645 54.7865 35.1285C54.7865 35.4405 55.0703 35.6405 55.4093 35.8645C55.9218 36.2085 56.5446 36.6245 56.5446 37.6325C56.5446 38.6405 55.906 39.3285 54.8968 39.3285C54.2267 39.3285 53.7379 39.1365 53.3516 38.7525L53.8719 37.7685V37.7605Z"
            fill="#151515" />
        <path
            d="M18.0021 47.2155C18.1519 47.4315 18.42 47.5595 18.6486 47.5595C18.964 47.5595 19.2084 47.2955 19.2084 46.8875C19.2084 46.4155 18.9167 46.1595 18.6092 45.8875C18.2544 45.5755 17.876 45.2555 17.876 44.5915C17.876 43.9675 18.286 43.5195 18.8615 43.5195C19.1532 43.5195 19.4213 43.6235 19.6263 43.8235L19.4134 44.1995C19.2636 44.0395 19.0823 43.9595 18.8694 43.9595C18.6013 43.9595 18.3727 44.1915 18.3727 44.5675C18.3727 44.9435 18.6329 45.1915 18.9325 45.4635C19.2951 45.7915 19.6972 46.1515 19.6972 46.8635C19.6972 47.5195 19.2951 47.9995 18.6802 47.9995C18.3017 47.9995 17.9943 47.8555 17.7656 47.6075L18.01 47.2155H18.0021Z"
            fill="#151515" />
        <path
            d="M20.6484 45.7595C20.6484 44.5035 20.9638 43.5195 21.7601 43.5195C22.3041 43.5195 22.5248 43.9515 22.6431 44.3515L22.2489 44.5115C22.1464 44.1755 22.0281 43.9675 21.7601 43.9675C21.3107 43.9675 21.1451 44.7435 21.1451 45.7675C21.1451 46.7915 21.3107 47.5675 21.7601 47.5675C22.0597 47.5675 22.1858 47.2795 22.2568 46.9115L22.6589 47.0635C22.5485 47.5275 22.3199 48.0075 21.7601 48.0075C20.9638 48.0075 20.6484 47.0315 20.6484 45.7675V45.7595Z"
            fill="#151515" />
        <path
            d="M24.7366 43.9595C24.2715 43.9595 24.1217 44.7755 24.1217 45.7595C24.1217 46.7435 24.2715 47.5595 24.7366 47.5595C25.2018 47.5595 25.3516 46.7275 25.3516 45.7595C25.3516 44.7915 25.1939 43.9595 24.7366 43.9595ZM24.7366 43.5195C25.5408 43.5195 25.8483 44.5275 25.8483 45.7595C25.8483 46.9915 25.5408 47.9995 24.7366 47.9995C23.9325 47.9995 23.625 46.9915 23.625 45.7595C23.625 44.5275 23.9246 43.5195 24.7366 43.5195Z"
            fill="#151515" />
        <path d="M27.3264 47.9203V44.0243H26.6562V43.5923H28.4853V44.0243H27.8152V47.9203H27.3264Z"
            fill="#151515" />
        <path d="M29.4844 47.9203V43.5923H29.9653V47.4883H31.0691V47.9203H29.4844Z" fill="#151515" />
        <path
            d="M32.8539 44.0963L32.4361 46.4883H33.2718L32.8539 44.0963ZM33.5004 47.9203L33.3269 46.9283H32.3809L32.2074 47.9203H31.7344L32.5701 43.5923H33.1298L33.9734 47.9203H33.5004Z"
            fill="#151515" />
        <path
            d="M36.4201 47.9203L35.3794 44.7283V47.9203H34.8984V43.5923H35.3794L36.4043 46.6883V43.5923H36.8773V47.9203H36.4201Z"
            fill="#151515" />
        <path
            d="M38.645 47.4883H38.9761C39.5122 47.4883 39.7172 46.7763 39.7172 45.7603C39.7172 44.7443 39.5043 44.0243 38.9761 44.0243H38.645V47.4883ZM38.1641 47.9203V43.5923H38.9761C39.8591 43.5923 40.2218 44.5123 40.2218 45.7603C40.2218 47.0083 39.8591 47.9203 38.9761 47.9203H38.1641Z"
            fill="#151515" />
    </g>
    <defs>
        <clipPath id="clip0_1516_1653">
            <rect width="62" height="48" fill="white" />
        </clipPath>
    </defs>
</svg>