<svg width="47" height="20" viewBox="0 0 47 20" fill="none" xmlns="http://www.w3.org/2000/svg">
    <g id="Group 9273">
        <path id="Vector"
            d="M9.375 0.414313C6.04491 0.414313 4.00245 2.54865 4.00245 10.1381C4.00245 17.7276 6.04491 19.5857 9.375 19.5857C12.7051 19.5857 14.6905 17.7589 14.6905 10.1381C14.6905 2.51726 12.6797 0.414313 9.375 0.414313ZM9.375 20C3.22226 20 0 15.6497 0 10.1381C0 4.62649 3.22226 0 9.375 0C15.5277 0 18.75 4.6516 18.75 10.1381C18.75 15.6246 15.5277 20 9.375 20Z"
            fill="#151515" />
        <path id="Vector_2"
            d="M46.25 0V0.428616C44.5485 0.428616 43.2236 1.10936 40.7623 7.21714L35.9779 20H35.551L30.6535 7.526L26.2395 20H25.8126L18.9122 2.67885C18.0646 0.516861 17.0976 0.43492 16.25 0.43492V0H24.5694V0.428616C22.0767 0.428616 23.0436 3.18311 23.1001 3.29657L27.5706 15.115L30.4275 6.90199L28.8703 2.66625C28.0478 0.504255 27.0558 0.422313 26.2395 0.422313V0H34.5589V0.428616C32.0097 0.428616 33.0332 3.18311 33.0583 3.29657L37.3906 15.2285L40.3354 7.10369C40.731 5.7422 42.8532 0.428616 38.4706 0.428616V0H46.25Z"
            fill="#151515" />
    </g>
</svg>