<svg xmlns="http://www.w3.org/2000/svg" width="83" height="64" viewBox="0 0 83 64" fill="none">
    <g clip-path="url(#clip0_755_149691)">
        <path
            d="M15.5104 0.72524C10.001 0.72524 6.62183 4.35191 6.62183 17.2479C6.62183 30.1439 10.001 33.3012 15.5104 33.3012C21.0199 33.3012 24.3045 30.1972 24.3045 17.2479C24.3045 4.29857 20.9779 0.72524 15.5104 0.72524ZM15.5104 34.0052C5.33105 34.0052 0 26.6132 0 17.2479C0 7.88257 5.33105 0.0212402 15.5104 0.0212402C25.6898 0.0212402 31.0208 7.92524 31.0208 17.2479C31.0208 26.5706 25.6898 34.0052 15.5104 34.0052Z"
            fill="white" />
        <path
            d="M77.1744 0V0.725333C74.3305 0.725333 72.1162 1.87733 68.0025 12.2133L60.006 33.8453H59.2923L51.1069 12.736L43.7295 33.8453H43.0159L31.4827 4.53333C30.066 0.874667 28.4499 0.736 27.0332 0.736V0H40.938V0.725333C36.7718 0.725333 38.3879 5.38667 38.4824 5.57867L45.9542 25.5787L50.7291 11.68L48.1265 4.512C46.7518 0.853333 45.0937 0.714667 43.7295 0.714667V0H57.6343V0.725333C53.3736 0.725333 55.0842 5.38667 55.1262 5.57867L62.3671 25.7707L67.2889 12.0213C67.9501 9.71733 71.4971 0.725333 64.1721 0.725333V0H77.1744Z"
            fill="white" />
        <path
            d="M79.9242 1.20533V2.12267H80.5958C80.8057 2.12267 81.0366 1.93067 81.0366 1.67467C81.0366 1.39733 80.8057 1.20533 80.5958 1.20533H79.9242ZM80.9946 3.392L80.365 2.42133H79.9242V3.392H79.6094V0.917333H80.5958C81.0051 0.917333 81.3619 1.216 81.3619 1.664C81.3619 2.208 80.8792 2.38933 80.7428 2.38933L81.3934 3.37067H80.9946V3.392ZM78.5809 2.15467C78.5809 3.17867 79.3995 4.02133 80.4174 4.02133C81.4354 4.02133 82.2539 3.17867 82.2539 2.15467C82.2539 1.13067 81.4354 0.288 80.4174 0.288C79.3995 0.288 78.5809 1.10933 78.5809 2.15467ZM78.2976 2.15467C78.2976 0.949333 79.2421 0 80.4069 0C81.5718 0 82.5163 0.949333 82.5163 2.144C82.5163 3.33867 81.5823 4.288 80.4069 4.288C79.2316 4.288 78.2871 3.328 78.2871 2.144L78.2976 2.15467Z"
            fill="white" />
        <path
            d="M4.62897 46.2404C4.05179 46.2404 3.8524 47.2217 3.8524 48.5977C3.8524 49.9737 4.05179 50.9444 4.62897 50.9444C5.20615 50.9444 5.40554 49.9524 5.40554 48.5977C5.40554 47.2431 5.20615 46.2404 4.62897 46.2404ZM4.62897 44.7471C6.33953 44.7471 7.1056 46.3791 7.1056 48.5977C7.1056 50.8164 6.33953 52.4377 4.62897 52.4377C2.91842 52.4377 2.15234 50.8057 2.15234 48.5977C2.15234 46.3897 2.91842 44.7471 4.62897 44.7471Z"
            fill="white" />
        <path
            d="M10.7258 46.3363H10.3585V48.2243H10.7258C11.1771 48.2243 11.4499 47.8616 11.4499 47.2856C11.4499 46.7096 11.1771 46.3363 10.7258 46.3363ZM11.4289 52.2989L10.7153 49.6856H10.369V52.2989H8.71094V44.8643H10.9987C12.237 44.8643 13.1395 45.8563 13.1395 47.2216C13.1395 48.4696 12.6253 49.0349 12.2265 49.2909L13.2025 52.2989H11.4289Z"
            fill="white" />
        <path
            d="M17.0738 44.7363C18.1652 44.7363 18.8158 45.611 19.0677 46.6563L17.7454 47.147C17.651 46.6457 17.4831 46.2297 17.0633 46.2297C16.6016 46.2297 16.2762 46.827 16.2762 48.587C16.2762 50.347 16.6016 50.9337 17.0633 50.9337C17.3361 50.9337 17.525 50.8483 17.6615 50.6563V49.611H16.9164V48.139H19.1202V51.403C18.5954 52.0323 17.9763 52.427 17.0633 52.427C15.3527 52.427 14.5762 50.859 14.5762 48.587C14.5762 46.315 15.3632 44.7363 17.0633 44.7363H17.0738Z"
            fill="white" />
        <path
            d="M22.8357 46.3469L22.3005 49.6216H23.3709L22.8357 46.3469ZM23.7487 52.2989L23.5598 51.0936H22.1116L21.9227 52.2989H20.3066L21.8703 44.8643H23.7802L25.3543 52.2989H23.7382H23.7487Z"
            fill="white" />
        <path
            d="M29.6576 52.2989L28.2829 48.2243V52.2989H26.6562V44.8643H28.3143L29.5736 48.7363V44.8643H31.2002V52.2989H29.6576Z"
            fill="white" />
        <path d="M34.705 44.8643H33.0469V52.2989H34.705V44.8643Z" fill="white" />
        <path
            d="M36.3086 48.587C36.3086 46.3363 37.0747 44.7363 38.7957 44.7363C40.1075 44.7363 40.5482 45.803 40.7896 46.6563L39.4673 47.147C39.3519 46.5817 39.184 46.2297 38.7852 46.2297C38.1871 46.2297 37.9982 47.179 37.9982 48.587C37.9982 49.995 38.1975 50.9337 38.7852 50.9337C39.2155 50.9337 39.3939 50.475 39.4778 49.8777L40.8001 50.3577C40.5902 51.2323 40.1495 52.427 38.7957 52.427C37.0747 52.427 36.3086 50.827 36.3086 48.587Z"
            fill="white" />
        <path
            d="M48.4319 52.2989L47.9072 47.9683L47.3825 52.2989H45.7244L44.4336 44.8643H46.1127L46.6269 49.3656L47.2775 44.8643H48.5473L49.198 49.3656L49.7122 44.8643H51.4017L50.09 52.2989H48.4319Z"
            fill="white" />
        <path
            d="M54.9571 46.2404C54.3799 46.2404 54.1805 47.2217 54.1805 48.5977C54.1805 49.9737 54.3799 50.9444 54.9571 50.9444C55.5343 50.9444 55.7337 49.9524 55.7337 48.5977C55.7337 47.2431 55.5343 46.2404 54.9571 46.2404ZM54.9571 44.7471C56.6677 44.7471 57.4337 46.3791 57.4337 48.5977C57.4337 50.8164 56.6677 52.4377 54.9571 52.4377C53.2465 52.4377 52.4805 50.8057 52.4805 48.5977C52.4805 46.3897 53.2465 44.7471 54.9571 44.7471Z"
            fill="white" />
        <path
            d="M61.0539 46.3363H60.6867V48.2243H61.0539C61.5052 48.2243 61.778 47.8616 61.778 47.2856C61.778 46.7096 61.5052 46.3363 61.0539 46.3363ZM61.7571 52.2989L61.0435 49.6856H60.6971V52.2989H59.0391V44.8643H61.3268C62.5651 44.8643 63.4676 45.8563 63.4676 47.2216C63.4676 48.4696 62.9534 49.0349 62.5546 49.2909L63.5306 52.2989H61.7571Z"
            fill="white" />
        <path
            d="M68.2533 52.2989L67.2668 49.6536L66.8261 50.5923V52.2989H65.168V44.8643H66.8261V48.0856L68.1903 44.8643H69.9953L68.2533 48.3416L70.1317 52.2989H68.2533Z"
            fill="white" />
        <path
            d="M71.7082 50.3471C72.0231 50.7417 72.5163 50.9337 72.9256 50.9337C73.3348 50.9337 73.5762 50.6564 73.5762 50.2937C73.5762 49.8244 73.1879 49.5684 72.7367 49.2697C72.065 48.8324 71.236 48.3097 71.236 46.9337C71.236 45.8137 72.0021 44.7471 73.4503 44.7471C74.1324 44.7471 74.7516 44.9817 75.1818 45.3871L74.5627 46.6884C74.2583 46.3791 73.891 46.2404 73.5342 46.2404C73.1459 46.2404 72.9256 46.4857 72.9256 46.8377C72.9256 47.2537 73.3034 47.5204 73.7546 47.8191C74.4367 48.2777 75.2658 48.8324 75.2658 50.1764C75.2658 51.5204 74.4157 52.4377 73.0725 52.4377C72.1805 52.4377 71.5298 52.1817 71.0156 51.6697L71.7082 50.3577V50.3471Z"
            fill="white" />
        <path
            d="M23.9594 62.9544C24.1587 63.2424 24.5155 63.413 24.8199 63.413C25.2396 63.413 25.565 63.061 25.565 62.517C25.565 61.8877 25.1767 61.5464 24.7674 61.1837C24.2952 60.7677 23.7914 60.341 23.7914 59.4557C23.7914 58.6237 24.3371 58.0264 25.1032 58.0264C25.4915 58.0264 25.8483 58.165 26.1212 58.4317L25.8378 58.933C25.6384 58.7197 25.3971 58.613 25.1137 58.613C24.7569 58.613 24.4526 58.9224 24.4526 59.4237C24.4526 59.925 24.7989 60.2557 25.1977 60.6184C25.6804 61.0557 26.2156 61.5357 26.2156 62.485C26.2156 63.3597 25.6804 63.9997 24.8619 63.9997C24.3581 63.9997 23.9489 63.8077 23.6445 63.477L23.9699 62.9544H23.9594Z"
            fill="white" />
        <path
            d="M27.4844 61.013C27.4844 59.3384 27.9041 58.0264 28.9641 58.0264C29.6882 58.0264 29.982 58.6024 30.1394 59.1357L29.6147 59.349C29.4783 58.901 29.3209 58.6237 28.9641 58.6237C28.3659 58.6237 28.1455 59.6584 28.1455 61.0237C28.1455 62.389 28.3659 63.4237 28.9641 63.4237C29.3628 63.4237 29.5307 63.0397 29.6252 62.549L30.1604 62.7517C30.0135 63.3704 29.7091 64.0104 28.9641 64.0104C27.9041 64.0104 27.4844 62.709 27.4844 61.0237V61.013Z"
            fill="white" />
        <path
            d="M32.9309 58.613C32.3117 58.613 32.1123 59.701 32.1123 61.013C32.1123 62.325 32.3117 63.413 32.9309 63.413C33.55 63.413 33.7494 62.3037 33.7494 61.013C33.7494 59.7224 33.5395 58.613 32.9309 58.613ZM32.9309 58.0264C34.0013 58.0264 34.4105 59.3704 34.4105 61.013C34.4105 62.6557 34.0013 63.9997 32.9309 63.9997C31.8604 63.9997 31.4512 62.6557 31.4512 61.013C31.4512 59.3704 31.85 58.0264 32.9309 58.0264Z"
            fill="white" />
        <path d="M36.3725 63.8937V58.699H35.4805V58.123H37.9151V58.699H37.0231V63.8937H36.3725Z"
            fill="white" />
        <path d="M39.248 63.8937V58.123H39.8882V63.3177H41.3574V63.8937H39.248Z" fill="white" />
        <path
            d="M43.7285 58.795L43.1723 61.9844H44.2846L43.7285 58.795ZM44.589 63.8937L44.3581 62.571H43.0988L42.8679 63.8937H42.2383L43.3507 58.123H44.0958L45.2186 63.8937H44.589Z"
            fill="white" />
        <path
            d="M48.4824 63.8937L47.0972 59.6377V63.8937H46.457V58.123H47.0972L48.4614 62.251V58.123H49.0911V63.8937H48.4824Z"
            fill="white" />
        <path
            d="M51.4429 63.3177H51.8836C52.5972 63.3177 52.8701 62.3684 52.8701 61.0137C52.8701 59.659 52.5867 58.699 51.8836 58.699H51.4429V63.3177ZM50.8027 63.8937V58.123H51.8836C53.059 58.123 53.5417 59.3497 53.5417 61.0137C53.5417 62.6777 53.059 63.8937 51.8836 63.8937H50.8027Z"
            fill="white" />
    </g>
    <defs>
        <clipPath id="clip0_755_149691">
            <rect width="82.5263" height="64" fill="white" />
        </clipPath>
    </defs>
</svg>