<svg xmlns="http://www.w3.org/2000/svg" width="12" height="10" viewBox="0 0 12 10" fill="none">
    <path
        d="M4.77655 1.76089C5.26509 0.586962 5.50936 0 5.92941 0C6.34946 0 6.59373 0.586963 7.08227 1.76089L7.10502 1.81555C7.38102 2.47876 7.51902 2.81037 7.80028 3.01192C8.08153 3.21347 8.45073 3.24535 9.18914 3.30909L9.32263 3.32061C10.5311 3.42493 11.1354 3.47709 11.2647 3.84764C11.394 4.21818 10.9452 4.61169 10.0477 5.39871L9.74821 5.66138C9.29389 6.05978 9.06673 6.25898 8.96085 6.52006C8.9411 6.56877 8.92469 6.61866 8.9117 6.66943C8.84211 6.94161 8.90863 7.23059 9.04167 7.80856L9.08308 7.98846C9.32758 9.05064 9.44983 9.58173 9.23638 9.81081C9.15662 9.89641 9.05296 9.95804 8.9378 9.98833C8.62962 10.0694 8.19209 9.72573 7.31702 9.03844C6.74242 8.58714 6.45512 8.36149 6.12526 8.31073C5.99551 8.29076 5.8633 8.29076 5.73355 8.31073C5.4037 8.36149 5.1164 8.58714 4.5418 9.03844C3.66673 9.72573 3.2292 10.0694 2.92102 9.98833C2.80586 9.95804 2.7022 9.89641 2.62243 9.81081C2.40898 9.58173 2.53123 9.05064 2.77574 7.98846L2.81715 7.80855C2.95019 7.23059 3.01671 6.94161 2.94711 6.66943C2.93413 6.61866 2.91771 6.56877 2.89796 6.52006C2.79208 6.25898 2.56492 6.05978 2.1106 5.66138L1.81107 5.39871C0.913587 4.61169 0.464846 4.21818 0.59414 3.84764C0.723435 3.47709 1.32768 3.42493 2.53618 3.32061L2.66968 3.30909C3.40808 3.24535 3.77729 3.21347 4.05854 3.01192C4.33979 2.81037 4.4778 2.47876 4.7538 1.81555L4.77655 1.76089Z"
        fill="#F2F2F2" />
</svg>