<svg xmlns="http://www.w3.org/2000/svg" width="12" height="10" viewBox="0 0 12 10" fill="none">
    <path
        d="M4.91912 1.76089C5.40767 0.586962 5.65194 0 6.07199 0C6.49204 0 6.73631 0.586963 7.22485 1.76089L7.2476 1.81555C7.5236 2.47876 7.6616 2.81037 7.94285 3.01192C8.22411 3.21347 8.59331 3.24535 9.33172 3.30909L9.46521 3.32061C10.6737 3.42493 11.278 3.47709 11.4073 3.84764C11.5365 4.21818 11.0878 4.61169 10.1903 5.39871L9.89079 5.66138C9.43647 6.05978 9.20931 6.25898 9.10343 6.52007C9.08368 6.56877 9.06726 6.61866 9.05428 6.66943C8.98469 6.94161 9.05121 7.23059 9.18425 7.80856L9.22566 7.98846C9.47016 9.05064 9.59241 9.58173 9.37896 9.81081C9.2992 9.89641 9.19553 9.95804 9.08038 9.98833C8.7722 10.0694 8.33466 9.72573 7.4596 9.03844C6.88499 8.58714 6.59769 8.36149 6.26784 8.31073C6.13809 8.29076 6.00588 8.29076 5.87613 8.31073C5.54628 8.36149 5.25898 8.58714 4.68437 9.03844C3.80931 9.72573 3.37177 10.0694 3.0636 9.98833C2.94844 9.95804 2.84477 9.89641 2.76501 9.81081C2.55156 9.58173 2.67381 9.05064 2.91831 7.98846L2.95973 7.80855C3.09277 7.23059 3.15929 6.94161 3.08969 6.66943C3.07671 6.61866 3.06029 6.56877 3.04054 6.52007C2.93466 6.25898 2.7075 6.05978 2.25318 5.66138L1.95365 5.39871C1.05616 4.61169 0.607424 4.21818 0.736719 3.84764C0.866013 3.47709 1.47026 3.42493 2.67876 3.32061L2.81225 3.30909C3.55066 3.24535 3.91986 3.21347 4.20112 3.01192C4.48237 2.81037 4.62037 2.47876 4.89638 1.81555L4.91912 1.76089Z"
        fill="#171717" />
</svg>